<svg xmlns="http://www.w3.org/2000/svg" version="1.1" xmlns:xlink="http://www.w3.org/1999/xlink" xmlns:svgjs="http://svgjs.com/svgjs" width="1080" height="1920" preserveAspectRatio="none" viewBox="0 0 1080 1920"><g mask="url(&quot;#SvgjsMask1019&quot;)" fill="none"><rect width="1080" height="1920" x="0" y="0" fill="#0e2a47"></rect><path d="M97.4 279.35L162.36 316.85L162.36 391.85L97.4 429.35L32.45 391.85L32.45 316.85zM162.36 -58.15L227.31 -20.65L227.31 54.35L162.36 91.85L97.4 54.35L97.4 -20.65zM227.31 954.35L292.26 991.85L292.26 1066.85L227.31 1104.35L162.36 1066.85L162.36 991.85zM162.36 1291.85L227.31 1329.35L227.31 1404.35L162.36 1441.85L97.4 1404.35L97.4 1329.35zM357.22 1629.35L422.17 1666.85L422.17 1741.85L357.22 1779.35L292.26 1741.85L292.26 1666.85zM487.13 54.35L552.08 91.85L552.08 166.85L487.13 204.35L422.17 166.85L422.17 91.85zM422.17 391.85L487.13 429.35L487.13 504.35L422.17 541.85L357.22 504.35L357.22 429.35zM422.17 1066.85L487.13 1104.35L487.13 1179.35L422.17 1216.85L357.22 1179.35L357.22 1104.35zM487.13 1179.35L552.08 1216.85L552.08 1291.85L487.13 1329.35L422.17 1291.85L422.17 1216.85zM422.17 1516.85L487.13 1554.35L487.13 1629.35L422.17 1666.85L357.22 1629.35L357.22 1554.35zM552.08 166.85L617.03 204.35L617.03 279.35L552.08 316.85L487.13 279.35L487.13 204.35zM617.03 729.35L681.99 766.85L681.99 841.85L617.03 879.35L552.08 841.85L552.08 766.85zM552.08 1516.85L617.03 1554.35L617.03 1629.35L552.08 1666.85L487.13 1629.35L487.13 1554.35zM617.03 1629.35L681.99 1666.85L681.99 1741.85L617.03 1779.35L552.08 1741.85L552.08 1666.85zM746.94 54.35L811.9 91.85L811.9 166.85L746.94 204.35L681.99 166.85L681.99 91.85zM746.94 954.35L811.9 991.85L811.9 1066.85L746.94 1104.35L681.99 1066.85L681.99 991.85zM681.99 1291.85L746.94 1329.35L746.94 1404.35L681.99 1441.85L617.03 1404.35L617.03 1329.35zM746.94 1404.35L811.9 1441.85L811.9 1516.85L746.94 1554.35L681.99 1516.85L681.99 1441.85zM876.85 954.35L941.8 991.85L941.8 1066.85L876.85 1104.35L811.89 1066.85L811.89 991.85zM811.89 1516.85L876.85 1554.35L876.85 1629.35L811.89 1666.85L746.94 1629.35L746.94 1554.35zM811.89 1741.85L876.85 1779.35L876.85 1854.35L811.89 1891.85L746.94 1854.35L746.94 1779.35zM941.8 -58.15L1006.76 -20.65L1006.76 54.35L941.8 91.85L876.85 54.35L876.85 -20.65zM1006.76 954.35L1071.71 991.85L1071.71 1066.85L1006.76 1104.35L941.8 1066.85L941.8 991.85zM941.8 1291.85L1006.76 1329.35L1006.76 1404.35L941.8 1441.85L876.85 1404.35L876.85 1329.35zM1136.66 504.35L1201.62 541.85L1201.62 616.85L1136.66 654.35L1071.71 616.85L1071.71 541.85zM1136.66 729.35L1201.62 766.85L1201.62 841.85L1136.66 879.35L1071.71 841.85L1071.71 766.85zM1071.71 841.85L1136.66 879.35L1136.66 954.35L1071.71 991.85L1006.76 954.35L1006.76 879.35zM1136.66 1629.35L1201.62 1666.85L1201.62 1741.85L1136.66 1779.35L1071.71 1741.85L1071.71 1666.85z" stroke="#03305d" stroke-width="2"></path><path d="M89.9 279.35 a7.5 7.5 0 1 0 15 0 a7.5 7.5 0 1 0 -15 0zM154.86 316.85 a7.5 7.5 0 1 0 15 0 a7.5 7.5 0 1 0 -15 0zM154.86 391.85 a7.5 7.5 0 1 0 15 0 a7.5 7.5 0 1 0 -15 0zM89.9 429.35 a7.5 7.5 0 1 0 15 0 a7.5 7.5 0 1 0 -15 0zM24.95 391.85 a7.5 7.5 0 1 0 15 0 a7.5 7.5 0 1 0 -15 0zM24.95 316.85 a7.5 7.5 0 1 0 15 0 a7.5 7.5 0 1 0 -15 0zM154.86 -58.15 a7.5 7.5 0 1 0 15 0 a7.5 7.5 0 1 0 -15 0zM219.81 -20.65 a7.5 7.5 0 1 0 15 0 a7.5 7.5 0 1 0 -15 0zM219.81 54.35 a7.5 7.5 0 1 0 15 0 a7.5 7.5 0 1 0 -15 0zM154.86 91.85 a7.5 7.5 0 1 0 15 0 a7.5 7.5 0 1 0 -15 0zM89.9 54.35 a7.5 7.5 0 1 0 15 0 a7.5 7.5 0 1 0 -15 0zM89.9 -20.65 a7.5 7.5 0 1 0 15 0 a7.5 7.5 0 1 0 -15 0zM219.81 954.35 a7.5 7.5 0 1 0 15 0 a7.5 7.5 0 1 0 -15 0zM284.76 991.85 a7.5 7.5 0 1 0 15 0 a7.5 7.5 0 1 0 -15 0zM284.76 1066.85 a7.5 7.5 0 1 0 15 0 a7.5 7.5 0 1 0 -15 0zM219.81 1104.35 a7.5 7.5 0 1 0 15 0 a7.5 7.5 0 1 0 -15 0zM154.86 1066.85 a7.5 7.5 0 1 0 15 0 a7.5 7.5 0 1 0 -15 0zM154.86 991.85 a7.5 7.5 0 1 0 15 0 a7.5 7.5 0 1 0 -15 0zM154.86 1291.85 a7.5 7.5 0 1 0 15 0 a7.5 7.5 0 1 0 -15 0zM219.81 1329.35 a7.5 7.5 0 1 0 15 0 a7.5 7.5 0 1 0 -15 0zM219.81 1404.35 a7.5 7.5 0 1 0 15 0 a7.5 7.5 0 1 0 -15 0zM154.86 1441.85 a7.5 7.5 0 1 0 15 0 a7.5 7.5 0 1 0 -15 0zM89.9 1404.35 a7.5 7.5 0 1 0 15 0 a7.5 7.5 0 1 0 -15 0zM89.9 1329.35 a7.5 7.5 0 1 0 15 0 a7.5 7.5 0 1 0 -15 0zM349.72 1629.35 a7.5 7.5 0 1 0 15 0 a7.5 7.5 0 1 0 -15 0zM414.67 1666.85 a7.5 7.5 0 1 0 15 0 a7.5 7.5 0 1 0 -15 0zM414.67 1741.85 a7.5 7.5 0 1 0 15 0 a7.5 7.5 0 1 0 -15 0zM349.72 1779.35 a7.5 7.5 0 1 0 15 0 a7.5 7.5 0 1 0 -15 0zM284.76 1741.85 a7.5 7.5 0 1 0 15 0 a7.5 7.5 0 1 0 -15 0zM284.76 1666.85 a7.5 7.5 0 1 0 15 0 a7.5 7.5 0 1 0 -15 0zM479.63 54.35 a7.5 7.5 0 1 0 15 0 a7.5 7.5 0 1 0 -15 0zM544.58 91.85 a7.5 7.5 0 1 0 15 0 a7.5 7.5 0 1 0 -15 0zM544.58 166.85 a7.5 7.5 0 1 0 15 0 a7.5 7.5 0 1 0 -15 0zM479.63 204.35 a7.5 7.5 0 1 0 15 0 a7.5 7.5 0 1 0 -15 0zM414.67 166.85 a7.5 7.5 0 1 0 15 0 a7.5 7.5 0 1 0 -15 0zM414.67 91.85 a7.5 7.5 0 1 0 15 0 a7.5 7.5 0 1 0 -15 0zM414.67 391.85 a7.5 7.5 0 1 0 15 0 a7.5 7.5 0 1 0 -15 0zM479.63 429.35 a7.5 7.5 0 1 0 15 0 a7.5 7.5 0 1 0 -15 0zM479.63 504.35 a7.5 7.5 0 1 0 15 0 a7.5 7.5 0 1 0 -15 0zM414.67 541.85 a7.5 7.5 0 1 0 15 0 a7.5 7.5 0 1 0 -15 0zM349.72 504.35 a7.5 7.5 0 1 0 15 0 a7.5 7.5 0 1 0 -15 0zM349.72 429.35 a7.5 7.5 0 1 0 15 0 a7.5 7.5 0 1 0 -15 0zM414.67 1066.85 a7.5 7.5 0 1 0 15 0 a7.5 7.5 0 1 0 -15 0zM479.63 1104.35 a7.5 7.5 0 1 0 15 0 a7.5 7.5 0 1 0 -15 0zM479.63 1179.35 a7.5 7.5 0 1 0 15 0 a7.5 7.5 0 1 0 -15 0zM414.67 1216.85 a7.5 7.5 0 1 0 15 0 a7.5 7.5 0 1 0 -15 0zM349.72 1179.35 a7.5 7.5 0 1 0 15 0 a7.5 7.5 0 1 0 -15 0zM349.72 1104.35 a7.5 7.5 0 1 0 15 0 a7.5 7.5 0 1 0 -15 0zM544.58 1216.85 a7.5 7.5 0 1 0 15 0 a7.5 7.5 0 1 0 -15 0zM544.58 1291.85 a7.5 7.5 0 1 0 15 0 a7.5 7.5 0 1 0 -15 0zM479.63 1329.35 a7.5 7.5 0 1 0 15 0 a7.5 7.5 0 1 0 -15 0zM414.67 1291.85 a7.5 7.5 0 1 0 15 0 a7.5 7.5 0 1 0 -15 0zM414.67 1516.85 a7.5 7.5 0 1 0 15 0 a7.5 7.5 0 1 0 -15 0zM479.63 1554.35 a7.5 7.5 0 1 0 15 0 a7.5 7.5 0 1 0 -15 0zM479.63 1629.35 a7.5 7.5 0 1 0 15 0 a7.5 7.5 0 1 0 -15 0zM349.72 1554.35 a7.5 7.5 0 1 0 15 0 a7.5 7.5 0 1 0 -15 0zM609.53 204.35 a7.5 7.5 0 1 0 15 0 a7.5 7.5 0 1 0 -15 0zM609.53 279.35 a7.5 7.5 0 1 0 15 0 a7.5 7.5 0 1 0 -15 0zM544.58 316.85 a7.5 7.5 0 1 0 15 0 a7.5 7.5 0 1 0 -15 0zM479.63 279.35 a7.5 7.5 0 1 0 15 0 a7.5 7.5 0 1 0 -15 0zM609.53 729.35 a7.5 7.5 0 1 0 15 0 a7.5 7.5 0 1 0 -15 0zM674.49 766.85 a7.5 7.5 0 1 0 15 0 a7.5 7.5 0 1 0 -15 0zM674.49 841.85 a7.5 7.5 0 1 0 15 0 a7.5 7.5 0 1 0 -15 0zM609.53 879.35 a7.5 7.5 0 1 0 15 0 a7.5 7.5 0 1 0 -15 0zM544.58 841.85 a7.5 7.5 0 1 0 15 0 a7.5 7.5 0 1 0 -15 0zM544.58 766.85 a7.5 7.5 0 1 0 15 0 a7.5 7.5 0 1 0 -15 0zM544.58 1516.85 a7.5 7.5 0 1 0 15 0 a7.5 7.5 0 1 0 -15 0zM609.53 1554.35 a7.5 7.5 0 1 0 15 0 a7.5 7.5 0 1 0 -15 0zM609.53 1629.35 a7.5 7.5 0 1 0 15 0 a7.5 7.5 0 1 0 -15 0zM544.58 1666.85 a7.5 7.5 0 1 0 15 0 a7.5 7.5 0 1 0 -15 0zM674.49 1666.85 a7.5 7.5 0 1 0 15 0 a7.5 7.5 0 1 0 -15 0zM674.49 1741.85 a7.5 7.5 0 1 0 15 0 a7.5 7.5 0 1 0 -15 0zM609.53 1779.35 a7.5 7.5 0 1 0 15 0 a7.5 7.5 0 1 0 -15 0zM544.58 1741.85 a7.5 7.5 0 1 0 15 0 a7.5 7.5 0 1 0 -15 0zM739.44 54.35 a7.5 7.5 0 1 0 15 0 a7.5 7.5 0 1 0 -15 0zM804.4 91.85 a7.5 7.5 0 1 0 15 0 a7.5 7.5 0 1 0 -15 0zM804.4 166.85 a7.5 7.5 0 1 0 15 0 a7.5 7.5 0 1 0 -15 0zM739.44 204.35 a7.5 7.5 0 1 0 15 0 a7.5 7.5 0 1 0 -15 0zM674.49 166.85 a7.5 7.5 0 1 0 15 0 a7.5 7.5 0 1 0 -15 0zM674.49 91.85 a7.5 7.5 0 1 0 15 0 a7.5 7.5 0 1 0 -15 0zM739.44 954.35 a7.5 7.5 0 1 0 15 0 a7.5 7.5 0 1 0 -15 0zM804.4 991.85 a7.5 7.5 0 1 0 15 0 a7.5 7.5 0 1 0 -15 0zM804.4 1066.85 a7.5 7.5 0 1 0 15 0 a7.5 7.5 0 1 0 -15 0zM739.44 1104.35 a7.5 7.5 0 1 0 15 0 a7.5 7.5 0 1 0 -15 0zM674.49 1066.85 a7.5 7.5 0 1 0 15 0 a7.5 7.5 0 1 0 -15 0zM674.49 991.85 a7.5 7.5 0 1 0 15 0 a7.5 7.5 0 1 0 -15 0zM674.49 1291.85 a7.5 7.5 0 1 0 15 0 a7.5 7.5 0 1 0 -15 0zM739.44 1329.35 a7.5 7.5 0 1 0 15 0 a7.5 7.5 0 1 0 -15 0zM739.44 1404.35 a7.5 7.5 0 1 0 15 0 a7.5 7.5 0 1 0 -15 0zM674.49 1441.85 a7.5 7.5 0 1 0 15 0 a7.5 7.5 0 1 0 -15 0zM609.53 1404.35 a7.5 7.5 0 1 0 15 0 a7.5 7.5 0 1 0 -15 0zM609.53 1329.35 a7.5 7.5 0 1 0 15 0 a7.5 7.5 0 1 0 -15 0zM804.4 1441.85 a7.5 7.5 0 1 0 15 0 a7.5 7.5 0 1 0 -15 0zM804.4 1516.85 a7.5 7.5 0 1 0 15 0 a7.5 7.5 0 1 0 -15 0zM739.44 1554.35 a7.5 7.5 0 1 0 15 0 a7.5 7.5 0 1 0 -15 0zM674.49 1516.85 a7.5 7.5 0 1 0 15 0 a7.5 7.5 0 1 0 -15 0zM869.35 954.35 a7.5 7.5 0 1 0 15 0 a7.5 7.5 0 1 0 -15 0zM934.3 991.85 a7.5 7.5 0 1 0 15 0 a7.5 7.5 0 1 0 -15 0zM934.3 1066.85 a7.5 7.5 0 1 0 15 0 a7.5 7.5 0 1 0 -15 0zM869.35 1104.35 a7.5 7.5 0 1 0 15 0 a7.5 7.5 0 1 0 -15 0zM804.39 1066.85 a7.5 7.5 0 1 0 15 0 a7.5 7.5 0 1 0 -15 0zM804.39 991.85 a7.5 7.5 0 1 0 15 0 a7.5 7.5 0 1 0 -15 0zM804.39 1516.85 a7.5 7.5 0 1 0 15 0 a7.5 7.5 0 1 0 -15 0zM869.35 1554.35 a7.5 7.5 0 1 0 15 0 a7.5 7.5 0 1 0 -15 0zM869.35 1629.35 a7.5 7.5 0 1 0 15 0 a7.5 7.5 0 1 0 -15 0zM804.39 1666.85 a7.5 7.5 0 1 0 15 0 a7.5 7.5 0 1 0 -15 0zM739.44 1629.35 a7.5 7.5 0 1 0 15 0 a7.5 7.5 0 1 0 -15 0zM804.39 1741.85 a7.5 7.5 0 1 0 15 0 a7.5 7.5 0 1 0 -15 0zM869.35 1779.35 a7.5 7.5 0 1 0 15 0 a7.5 7.5 0 1 0 -15 0zM869.35 1854.35 a7.5 7.5 0 1 0 15 0 a7.5 7.5 0 1 0 -15 0zM804.39 1891.85 a7.5 7.5 0 1 0 15 0 a7.5 7.5 0 1 0 -15 0zM739.44 1854.35 a7.5 7.5 0 1 0 15 0 a7.5 7.5 0 1 0 -15 0zM739.44 1779.35 a7.5 7.5 0 1 0 15 0 a7.5 7.5 0 1 0 -15 0zM934.3 -58.15 a7.5 7.5 0 1 0 15 0 a7.5 7.5 0 1 0 -15 0zM999.26 -20.65 a7.5 7.5 0 1 0 15 0 a7.5 7.5 0 1 0 -15 0zM999.26 54.35 a7.5 7.5 0 1 0 15 0 a7.5 7.5 0 1 0 -15 0zM934.3 91.85 a7.5 7.5 0 1 0 15 0 a7.5 7.5 0 1 0 -15 0zM869.35 54.35 a7.5 7.5 0 1 0 15 0 a7.5 7.5 0 1 0 -15 0zM869.35 -20.65 a7.5 7.5 0 1 0 15 0 a7.5 7.5 0 1 0 -15 0zM999.26 954.35 a7.5 7.5 0 1 0 15 0 a7.5 7.5 0 1 0 -15 0zM1064.21 991.85 a7.5 7.5 0 1 0 15 0 a7.5 7.5 0 1 0 -15 0zM1064.21 1066.85 a7.5 7.5 0 1 0 15 0 a7.5 7.5 0 1 0 -15 0zM999.26 1104.35 a7.5 7.5 0 1 0 15 0 a7.5 7.5 0 1 0 -15 0zM934.3 1291.85 a7.5 7.5 0 1 0 15 0 a7.5 7.5 0 1 0 -15 0zM999.26 1329.35 a7.5 7.5 0 1 0 15 0 a7.5 7.5 0 1 0 -15 0zM999.26 1404.35 a7.5 7.5 0 1 0 15 0 a7.5 7.5 0 1 0 -15 0zM934.3 1441.85 a7.5 7.5 0 1 0 15 0 a7.5 7.5 0 1 0 -15 0zM869.35 1404.35 a7.5 7.5 0 1 0 15 0 a7.5 7.5 0 1 0 -15 0zM869.35 1329.35 a7.5 7.5 0 1 0 15 0 a7.5 7.5 0 1 0 -15 0zM1129.16 504.35 a7.5 7.5 0 1 0 15 0 a7.5 7.5 0 1 0 -15 0zM1194.12 541.85 a7.5 7.5 0 1 0 15 0 a7.5 7.5 0 1 0 -15 0zM1194.12 616.85 a7.5 7.5 0 1 0 15 0 a7.5 7.5 0 1 0 -15 0zM1129.16 654.35 a7.5 7.5 0 1 0 15 0 a7.5 7.5 0 1 0 -15 0zM1064.21 616.85 a7.5 7.5 0 1 0 15 0 a7.5 7.5 0 1 0 -15 0zM1064.21 541.85 a7.5 7.5 0 1 0 15 0 a7.5 7.5 0 1 0 -15 0zM1129.16 729.35 a7.5 7.5 0 1 0 15 0 a7.5 7.5 0 1 0 -15 0zM1194.12 766.85 a7.5 7.5 0 1 0 15 0 a7.5 7.5 0 1 0 -15 0zM1194.12 841.85 a7.5 7.5 0 1 0 15 0 a7.5 7.5 0 1 0 -15 0zM1129.16 879.35 a7.5 7.5 0 1 0 15 0 a7.5 7.5 0 1 0 -15 0zM1064.21 841.85 a7.5 7.5 0 1 0 15 0 a7.5 7.5 0 1 0 -15 0zM1064.21 766.85 a7.5 7.5 0 1 0 15 0 a7.5 7.5 0 1 0 -15 0zM1129.16 954.35 a7.5 7.5 0 1 0 15 0 a7.5 7.5 0 1 0 -15 0zM999.26 879.35 a7.5 7.5 0 1 0 15 0 a7.5 7.5 0 1 0 -15 0zM1129.16 1629.35 a7.5 7.5 0 1 0 15 0 a7.5 7.5 0 1 0 -15 0zM1194.12 1666.85 a7.5 7.5 0 1 0 15 0 a7.5 7.5 0 1 0 -15 0zM1194.12 1741.85 a7.5 7.5 0 1 0 15 0 a7.5 7.5 0 1 0 -15 0zM1129.16 1779.35 a7.5 7.5 0 1 0 15 0 a7.5 7.5 0 1 0 -15 0zM1064.21 1741.85 a7.5 7.5 0 1 0 15 0 a7.5 7.5 0 1 0 -15 0zM1064.21 1666.85 a7.5 7.5 0 1 0 15 0 a7.5 7.5 0 1 0 -15 0z" fill="#03305d"></path><path d="M56.69 67.9L100 92.9L100 142.9L56.69 167.9L13.39 142.9L13.39 92.9zM13.39 142.9L56.69 167.9L56.69 217.9L13.39 242.9L-29.91 217.9L-29.91 167.9zM13.39 592.9L56.69 617.9L56.69 667.9L13.39 692.9L-29.91 667.9L-29.91 617.9zM56.69 817.9L100 842.9L100 892.9L56.69 917.9L13.39 892.9L13.39 842.9zM56.69 1117.9L100 1142.9L100 1192.9L56.69 1217.9L13.39 1192.9L13.39 1142.9zM56.69 1417.9L100 1442.9L100 1492.9L56.69 1517.9L13.39 1492.9L13.39 1442.9zM13.39 1492.9L56.69 1517.9L56.69 1567.9L13.39 1592.9L-29.91 1567.9L-29.91 1517.9zM56.69 1567.9L100 1592.9L100 1642.9L56.69 1667.9L13.39 1642.9L13.39 1592.9zM13.39 1642.9L56.69 1667.9L56.69 1717.9L13.39 1742.9L-29.91 1717.9L-29.91 1667.9zM56.69 1717.9L100 1742.9L100 1792.9L56.69 1817.9L13.39 1792.9L13.39 1742.9zM100 442.9L143.3 467.9L143.3 517.9L100 542.9L56.69 517.9L56.69 467.9zM143.3 1117.9L186.6 1142.9L186.6 1192.9L143.3 1217.9L100 1192.9L100 1142.9zM143.3 1267.9L186.6 1292.9L186.6 1342.9L143.3 1367.9L100 1342.9L100 1292.9zM143.3 1417.9L186.6 1442.9L186.6 1492.9L143.3 1517.9L100 1492.9L100 1442.9zM143.3 1717.9L186.6 1742.9L186.6 1792.9L143.3 1817.9L100 1792.9L100 1742.9zM100 1942.9L143.3 1967.9L143.3 2017.9L100 2042.9L56.69 2017.9L56.69 1967.9zM186.6 -7.1L229.9 17.9L229.9 67.9L186.6 92.9L143.3 67.9L143.3 17.9zM186.6 292.9L229.9 317.9L229.9 367.9L186.6 392.9L143.3 367.9L143.3 317.9zM229.9 517.9L273.2 542.9L273.2 592.9L229.9 617.9L186.6 592.9L186.6 542.9zM186.6 742.9L229.9 767.9L229.9 817.9L186.6 842.9L143.3 817.9L143.3 767.9zM186.6 892.9L229.9 917.9L229.9 967.9L186.6 992.9L143.3 967.9L143.3 917.9zM229.9 967.9L273.2 992.9L273.2 1042.9L229.9 1067.9L186.6 1042.9L186.6 992.9zM229.9 1117.9L273.2 1142.9L273.2 1192.9L229.9 1217.9L186.6 1192.9L186.6 1142.9zM186.6 1642.9L229.9 1667.9L229.9 1717.9L186.6 1742.9L143.3 1717.9L143.3 1667.9zM229.9 1717.9L273.2 1742.9L273.2 1792.9L229.9 1817.9L186.6 1792.9L186.6 1742.9zM186.6 1942.9L229.9 1967.9L229.9 2017.9L186.6 2042.9L143.3 2017.9L143.3 1967.9zM316.51 217.9L359.81 242.9L359.81 292.9L316.51 317.9L273.2 292.9L273.2 242.9zM316.51 667.9L359.81 692.9L359.81 742.9L316.51 767.9L273.2 742.9L273.2 692.9zM316.51 817.9L359.81 842.9L359.81 892.9L316.51 917.9L273.2 892.9L273.2 842.9zM273.2 1042.9L316.51 1067.9L316.51 1117.9L273.2 1142.9L229.9 1117.9L229.9 1067.9zM316.51 1117.9L359.81 1142.9L359.81 1192.9L316.51 1217.9L273.2 1192.9L273.2 1142.9zM273.2 1342.9L316.51 1367.9L316.51 1417.9L273.2 1442.9L229.9 1417.9L229.9 1367.9zM316.51 1417.9L359.81 1442.9L359.81 1492.9L316.51 1517.9L273.2 1492.9L273.2 1442.9zM316.51 1717.9L359.81 1742.9L359.81 1792.9L316.51 1817.9L273.2 1792.9L273.2 1742.9zM273.2 1792.9L316.51 1817.9L316.51 1867.9L273.2 1892.9L229.9 1867.9L229.9 1817.9zM273.2 1942.9L316.51 1967.9L316.51 2017.9L273.2 2042.9L229.9 2017.9L229.9 1967.9zM359.81 142.9L403.11 167.9L403.11 217.9L359.81 242.9L316.51 217.9L316.51 167.9zM403.11 217.9L446.42 242.9L446.42 292.9L403.11 317.9L359.81 292.9L359.81 242.9zM359.81 742.9L403.11 767.9L403.11 817.9L359.81 842.9L316.51 817.9L316.51 767.9zM359.81 892.9L403.11 917.9L403.11 967.9L359.81 992.9L316.51 967.9L316.51 917.9zM403.11 1117.9L446.42 1142.9L446.42 1192.9L403.11 1217.9L359.81 1192.9L359.81 1142.9zM359.81 1342.9L403.11 1367.9L403.11 1417.9L359.81 1442.9L316.51 1417.9L316.51 1367.9zM403.11 1417.9L446.42 1442.9L446.42 1492.9L403.11 1517.9L359.81 1492.9L359.81 1442.9zM359.81 1492.9L403.11 1517.9L403.11 1567.9L359.81 1592.9L316.51 1567.9L316.51 1517.9zM403.11 1567.9L446.42 1592.9L446.42 1642.9L403.11 1667.9L359.81 1642.9L359.81 1592.9zM403.11 1717.9L446.42 1742.9L446.42 1792.9L403.11 1817.9L359.81 1792.9L359.81 1742.9zM446.42 -7.1L489.72 17.9L489.72 67.9L446.42 92.9L403.11 67.9L403.11 17.9zM489.72 67.9L533.02 92.9L533.02 142.9L489.72 167.9L446.42 142.9L446.42 92.9zM446.42 292.9L489.72 317.9L489.72 367.9L446.42 392.9L403.11 367.9L403.11 317.9zM489.72 667.9L533.02 692.9L533.02 742.9L489.72 767.9L446.42 742.9L446.42 692.9zM489.72 967.9L533.02 992.9L533.02 1042.9L489.72 1067.9L446.42 1042.9L446.42 992.9zM446.42 1042.9L489.72 1067.9L489.72 1117.9L446.42 1142.9L403.11 1117.9L403.11 1067.9zM446.42 1192.9L489.72 1217.9L489.72 1267.9L446.42 1292.9L403.11 1267.9L403.11 1217.9zM446.42 1492.9L489.72 1517.9L489.72 1567.9L446.42 1592.9L403.11 1567.9L403.11 1517.9zM533.02 442.9L576.32 467.9L576.32 517.9L533.02 542.9L489.72 517.9L489.72 467.9zM533.02 592.9L576.32 617.9L576.32 667.9L533.02 692.9L489.72 667.9L489.72 617.9zM576.32 667.9L619.63 692.9L619.63 742.9L576.32 767.9L533.02 742.9L533.02 692.9zM576.32 967.9L619.63 992.9L619.63 1042.9L576.32 1067.9L533.02 1042.9L533.02 992.9zM576.32 1117.9L619.63 1142.9L619.63 1192.9L576.32 1217.9L533.02 1192.9L533.02 1142.9zM576.32 1417.9L619.63 1442.9L619.63 1492.9L576.32 1517.9L533.02 1492.9L533.02 1442.9zM576.32 1567.9L619.63 1592.9L619.63 1642.9L576.32 1667.9L533.02 1642.9L533.02 1592.9zM533.02 1642.9L576.32 1667.9L576.32 1717.9L533.02 1742.9L489.72 1717.9L489.72 1667.9zM533.02 1792.9L576.32 1817.9L576.32 1867.9L533.02 1892.9L489.72 1867.9L489.72 1817.9zM662.93 217.9L706.23 242.9L706.23 292.9L662.93 317.9L619.63 292.9L619.63 242.9zM619.63 442.9L662.93 467.9L662.93 517.9L619.63 542.9L576.32 517.9L576.32 467.9zM662.93 517.9L706.23 542.9L706.23 592.9L662.93 617.9L619.63 592.9L619.63 542.9zM619.63 592.9L662.93 617.9L662.93 667.9L619.63 692.9L576.32 667.9L576.32 617.9zM619.63 742.9L662.93 767.9L662.93 817.9L619.63 842.9L576.32 817.9L576.32 767.9zM619.63 892.9L662.93 917.9L662.93 967.9L619.63 992.9L576.32 967.9L576.32 917.9zM619.63 1042.9L662.93 1067.9L662.93 1117.9L619.63 1142.9L576.32 1117.9L576.32 1067.9zM619.63 1492.9L662.93 1517.9L662.93 1567.9L619.63 1592.9L576.32 1567.9L576.32 1517.9zM619.63 1642.9L662.93 1667.9L662.93 1717.9L619.63 1742.9L576.32 1717.9L576.32 1667.9zM706.23 142.9L749.53 167.9L749.53 217.9L706.23 242.9L662.93 217.9L662.93 167.9zM706.23 442.9L749.53 467.9L749.53 517.9L706.23 542.9L662.93 517.9L662.93 467.9zM749.53 517.9L792.84 542.9L792.84 592.9L749.53 617.9L706.23 592.9L706.23 542.9zM749.53 667.9L792.84 692.9L792.84 742.9L749.53 767.9L706.23 742.9L706.23 692.9zM706.23 742.9L749.53 767.9L749.53 817.9L706.23 842.9L662.93 817.9L662.93 767.9zM749.53 1117.9L792.84 1142.9L792.84 1192.9L749.53 1217.9L706.23 1192.9L706.23 1142.9zM706.23 1192.9L749.53 1217.9L749.53 1267.9L706.23 1292.9L662.93 1267.9L662.93 1217.9zM749.53 1267.9L792.84 1292.9L792.84 1342.9L749.53 1367.9L706.23 1342.9L706.23 1292.9zM706.23 1492.9L749.53 1517.9L749.53 1567.9L706.23 1592.9L662.93 1567.9L662.93 1517.9zM792.84 -7.1L836.14 17.9L836.14 67.9L792.84 92.9L749.53 67.9L749.53 17.9zM836.14 67.9L879.44 92.9L879.44 142.9L836.14 167.9L792.84 142.9L792.84 92.9zM792.84 292.9L836.14 317.9L836.14 367.9L792.84 392.9L749.53 367.9L749.53 317.9zM836.14 367.9L879.44 392.9L879.44 442.9L836.14 467.9L792.84 442.9L792.84 392.9zM836.14 667.9L879.44 692.9L879.44 742.9L836.14 767.9L792.84 742.9L792.84 692.9zM792.84 742.9L836.14 767.9L836.14 817.9L792.84 842.9L749.53 817.9L749.53 767.9zM836.14 817.9L879.44 842.9L879.44 892.9L836.14 917.9L792.84 892.9L792.84 842.9zM836.14 1117.9L879.44 1142.9L879.44 1192.9L836.14 1217.9L792.84 1192.9L792.84 1142.9zM836.14 1567.9L879.44 1592.9L879.44 1642.9L836.14 1667.9L792.84 1642.9L792.84 1592.9zM792.84 1792.9L836.14 1817.9L836.14 1867.9L792.84 1892.9L749.53 1867.9L749.53 1817.9zM792.84 1942.9L836.14 1967.9L836.14 2017.9L792.84 2042.9L749.53 2017.9L749.53 1967.9zM879.44 142.9L922.74 167.9L922.74 217.9L879.44 242.9L836.14 217.9L836.14 167.9zM879.44 592.9L922.74 617.9L922.74 667.9L879.44 692.9L836.14 667.9L836.14 617.9zM922.74 817.9L966.05 842.9L966.05 892.9L922.74 917.9L879.44 892.9L879.44 842.9zM879.44 1042.9L922.74 1067.9L922.74 1117.9L879.44 1142.9L836.14 1117.9L836.14 1067.9zM922.74 1717.9L966.05 1742.9L966.05 1792.9L922.74 1817.9L879.44 1792.9L879.44 1742.9zM879.44 1792.9L922.74 1817.9L922.74 1867.9L879.44 1892.9L836.14 1867.9L836.14 1817.9zM922.74 1867.9L966.05 1892.9L966.05 1942.9L922.74 1967.9L879.44 1942.9L879.44 1892.9zM966.05 -7.1L1009.35 17.9L1009.35 67.9L966.05 92.9L922.74 67.9L922.74 17.9zM966.05 442.9L1009.35 467.9L1009.35 517.9L966.05 542.9L922.74 517.9L922.74 467.9zM966.05 892.9L1009.35 917.9L1009.35 967.9L966.05 992.9L922.74 967.9L922.74 917.9zM1009.35 967.9L1052.65 992.9L1052.65 1042.9L1009.35 1067.9L966.05 1042.9L966.05 992.9zM1009.35 1117.9L1052.65 1142.9L1052.65 1192.9L1009.35 1217.9L966.05 1192.9L966.05 1142.9zM966.05 1492.9L1009.35 1517.9L1009.35 1567.9L966.05 1592.9L922.74 1567.9L922.74 1517.9zM1009.35 1567.9L1052.65 1592.9L1052.65 1642.9L1009.35 1667.9L966.05 1642.9L966.05 1592.9zM966.05 1642.9L1009.35 1667.9L1009.35 1717.9L966.05 1742.9L922.74 1717.9L922.74 1667.9zM966.05 1792.9L1009.35 1817.9L1009.35 1867.9L966.05 1892.9L922.74 1867.9L922.74 1817.9zM1009.35 1867.9L1052.65 1892.9L1052.65 1942.9L1009.35 1967.9L966.05 1942.9L966.05 1892.9zM966.05 1942.9L1009.35 1967.9L1009.35 2017.9L966.05 2042.9L922.74 2017.9L922.74 1967.9zM1052.65 142.9L1095.95 167.9L1095.95 217.9L1052.65 242.9L1009.35 217.9L1009.35 167.9zM1052.65 292.9L1095.95 317.9L1095.95 367.9L1052.65 392.9L1009.35 367.9L1009.35 317.9zM1095.95 367.9L1139.26 392.9L1139.26 442.9L1095.95 467.9L1052.65 442.9L1052.65 392.9zM1095.95 517.9L1139.26 542.9L1139.26 592.9L1095.95 617.9L1052.65 592.9L1052.65 542.9zM1052.65 892.9L1095.95 917.9L1095.95 967.9L1052.65 992.9L1009.35 967.9L1009.35 917.9zM1095.95 967.9L1139.26 992.9L1139.26 1042.9L1095.95 1067.9L1052.65 1042.9L1052.65 992.9zM1052.65 1042.9L1095.95 1067.9L1095.95 1117.9L1052.65 1142.9L1009.35 1117.9L1009.35 1067.9zM1095.95 1717.9L1139.26 1742.9L1139.26 1792.9L1095.95 1817.9L1052.65 1792.9L1052.65 1742.9zM1095.95 1867.9L1139.26 1892.9L1139.26 1942.9L1095.95 1967.9L1052.65 1942.9L1052.65 1892.9zM1052.65 1942.9L1095.95 1967.9L1095.95 2017.9L1052.65 2042.9L1009.35 2017.9L1009.35 1967.9z" stroke="rgba(6, 80, 156, 0.93)" stroke-width="2"></path></g><defs><mask id="SvgjsMask1019"><rect width="1080" height="1920" fill="#ffffff"></rect></mask></defs></svg>